# xmcd
#
# Track frame offsets:
#	150
#	23930
#	38662
#	54152
#	74112
#	91580
#	119915
#	137752
#	158350
#	176717
#
# Disc length: 2595 seconds
#
# Revision: 0
# Processed by: cddbd v1.4PL0 Copyright (c) Steve Scherf et al.
# Submitted via: EasyCDDAExtractor 4.6.0.1
#
DISCID=820a210a
DTITLE=Lenny McDaniel - The Blues Side
DYEAR=1999
DGENRE=Blues
TTITLE0=The Blues Side
TTITLE1=Permanently Halloween
TTITLE2=Brand New Mambo
TTITLE3=it's Just Not Right
TTITLE4=The Slow Nights
TTITLE5=Southern Rain
TTITLE6=Good People
TTITLE7=Better Late Than Never
TTITLE8=Let's Get Down To Business
TTITLE9=I'm Leavin
EXTD=
EXTT0=
EXTT1=
EXTT2=
EXTT3=
EXTT4=
EXTT5=
EXTT6=
EXTT7=
EXTT8=
EXTT9=
PLAYORDER=
